<svg xmlns="http://www.w3.org/2000/svg" width="283.46" height="283.46" xmlns:xlink="http://www.w3.org/1999/xlink">
  <defs>
    <filter id="d" width="1.113" height="1.113" x="-.056" y="-.056" color-interpolation-filters="sRGB">
      <feGaussianBlur stdDeviation="1.68"/>
    </filter>
    <radialGradient id="b" cx="141.804" cy="143.46" r="77.905" xlink:href="#a" fx="141.804" fy="143.46" gradientTransform="matrix(1.074 0 0 1.076 -10.485 -10.946)" gradientUnits="userSpaceOnUse"/>
    <linearGradient id="a">
      <stop offset="0" stop-color="#bae9ff"/>
      <stop offset="1" stop-color="#004bdd"/>
    </linearGradient>
    <filter id="c" width="1.6" height="1.6" x="-.3" y="-.3" color-interpolation-filters="sRGB">
      <feGaussianBlur stdDeviation="15 15" result="blur"/>
      <feComposite in="SourceGraphic" in2="blur" operator="atop" result="composite1"/>
      <feComposite in2="composite1" operator="in" result="composite2"/>
      <feComposite in2="composite2" operator="in" result="composite3"/>
      <feTurbulence type="fractalNoise" numOctaves="3" seed="1" baseFrequency="0.05 0.05" result="turbulence"/>
      <feDisplacementMap in="composite3" in2="turbulence" xChannelSelector="R" scale="30" yChannelSelector="G" result="map"/>
      <feColorMatrix values="1 0 0 0 0 0 1 0 0 0 0 0 1 0 0 0 0 0 1 -0" result="colormatrix"/>
      <feComposite in="composite3" in2="colormatrix" operator="atop" result="composite4"/>
    </filter>
  </defs>
  <ellipse cx="141.341" cy="143.398" fill="#fff" rx="136.669" ry="136.67"/>
  <path fill="#f4bb0b" d="M131.203 8.55h20.182c6.568-.286 9.712 4.188 12.79 8.976 4.072 6.337 9.724 10.5 16.84 13.38 14.27 5.768 28.282 12.18 42.306 18.533 3.95 1.78 7.83 2.59 11.96 1.42 2.58-.73 4.34.06 6 2 4.68 5.45 9.1 11.08 13.07 17.06 10.09 15.17 16.08 31.97 19.97 49.62v2.75c-3.71 4.7-5.31 10.34-6.15 16.03-2.51 17.25-6.41 34.16-11.15 50.91-1.63 5.77-1.55 11.52 1.57 16.84 1.2 2.03.3 3.37-.63 4.96-9.52 16.31-21.92 30.03-37.14 41.21-1.06.77-2.14 2.27-3.55 1.71-9.42-3.76-16.76 1.61-24.59 5.27-10.07 4.71-20.83 7.69-31.86 7.23-9.72-.41-15.75 3.27-19.5 11.76h-10.09c-.87-.24-1.72-.62-2.61-.69-21.35-1.85-40.94-8.8-59.17-19.97-3.09-1.9-4.01-3.75-3.25-7.34 1.86-8.75.82-17.14-5.41-24.07-6.47-7.21-12.12-15.02-16.61-23.51-5.31-10.06-12.8-14.63-24.11-11.8-4.06 1.01-5.41-.86-6.65-4.5-3.65-10.71-5.12-21.83-6.95-32.89V134.2c.58-4.19 1.35-8.366 1.69-12.576.43-5.32 2.38-9.035 7.9-10.81 12.13-3.9 21-12.068 28.15-22.37 4.09-5.89 8.27-11.73 12.678-17.387 6.2-7.96 11.764-16.65 12.4-26.63 1.09-17.04 11.706-23.84 26.04-27.8.88-.24 1.736-.573 2.59-.89 10.766-3.973 22.08-5.394 33.318-7.2zM79.505 149.33c12.114 3.337 20.11-1.843 26.98-10.976 7.247-9.637 15.257-18.715 23.17-27.83 4.79-5.522 6.45-11.673 5.08-18.704-1.948-9.995-5.518-19.388-11.098-27.93-4.378-6.704-10.616-9.85-18.71-9.228-5.633.432-11.33 1.33-16.91.896-10.89-.846-18.265 4.28-24.508 12.36-7.77 10.05-15.04 20.407-21.4 31.408-2.66 4.593-3 9.228-.87 14.02 2.54 5.722 5.46 11.29 7.75 17.11 5.56 14.137 14.62 22.444 30.51 18.874zm150.48-73.297c0-4.218.165-7.437-.03-10.636-.47-7.676-4.054-13.305-11.28-16.38-9.13-3.887-18.208-7.9-27.4-11.63-6.628-2.692-13.316-6.28-20.633-5.323-14.308 1.874-26.59 8.714-37.71 17.592-4.46 3.56-5.8 8.436-3.686 14.024 2.487 6.57 5.21 13.078 7.22 19.794 2.38 7.946 7.4 12.665 15.195 15.034 10.53 3.197 21.24 6.003 31.37 10.17 15.28 6.278 25.97-2.254 37.43-9.683 9.03-5.854 10.82-14.22 9.53-22.965zm-67.95 186.76c23.025-3.503 46.305-6.648 54.188-34.298.164-.58.502-1.11.786-1.652 3.27-6.232 2.83-12.308-.69-18.3-3.57-6.074-7.8-11.656-12.22-17.123-5.98-7.38-13.45-10.246-22.34-6.657-13.08 5.285-26.61 8.642-40.43 11.11-5.71 1.022-8.83 4.936-10.77 10.145-1.92 5.132-3.3 10.495-6.18 15.235-4.73 7.787-4.26 12.532 2.04 19.312 5.64 6.07 12.57 10.647 18.71 16.133 4.83 4.32 10.28 6.446 16.87 6.094zm103.4-124.73c.066-5.167-1.4-9.792-3.944-14.07-5.49-9.247-12.71-17.167-20-24.963-4.35-4.66-9.12-4.894-14.49-1.35-6.23 4.114-12.28 8.51-18.37 12.85-2.3 1.64-3.92 3.878-4.56 6.668-3.65 15.997-3.95 32.364-5.18 48.62-.29 3.798.54 7.627 1.88 11.23 3.4 9.08 10.68 15.477 16.25 23.042 4.77 6.485 11.29 7.602 18.25 3.527 7.92-4.632 14.75-10.832 18.53-19.167 6.67-14.702 7.8-30.918 11.66-46.387zM77.202 153.768c-18.184-.13-19.973 1.135-25.367 16.437-1.826 5.18-3.728 10.335-5.556 15.515-2.19 6.19-1.5 11.908 2.39 17.368 3.18 4.473 6.01 9.202 8.88 13.886 4.56 7.437 10.82 12.407 19.68 13.462 8.48 1.01 16.98 2.006 25.55 1.692 5.59-.208 9.97-2.815 12.78-7.662 4.6-7.948 8.3-16.33 11.15-25.06 1.31-4.035 1.78-8.51-1.28-11.796-7.83-8.41-14.03-18.09-21.54-26.72-2.92-3.354-6.42-6.183-11.24-6.417-5.79-.285-11.58-.53-15.47-.706z"/>
  <path d="M156.93 278.444h-30.278c-1.033-.232-2.056-.538-3.1-.686-11.982-1.7-23.59-4.77-34.7-9.59-1.23-.537-2.605-.658-2.756-2.952-.8-12.068-4.137-23.24-12.205-32.706-6.94-8.138-14.71-15.488-21.76-23.507-5.02-5.715-10.73-10.376-17.61-13.59-5.8-2.712-11.52-5.652-17.5-7.898-3-1.127-4.24-2.856-5.06-5.667-2.72-9.23-3.99-18.73-5.49-28.19v-20.183c1.62-9.29 2.94-18.623 5.39-27.774 1.3-4.83 3.51-8.04 8.37-9.75 8.2-2.88 14.11-8.36 18.86-15.81 7.96-12.49 16.72-24.48 25.29-36.58 2.1-2.96 3.82-6.01 3.79-9.61-.02-3.27 1.7-4.77 4.25-6.3 19.25-11.57 40.2-17.49 62.48-19.09 6.76-.48 13.31-.46 19.03 4.35 2.26 1.9 5.37 2.93 8.25 3.89 15.54 5.2 30.37 12.01 44.96 19.42 5.08 2.58 10.47 4.21 16.33 2.63 1.81-.48 3.46-.23 5.08 1.15 14.78 12.55 26.48 27.47 34.96 44.9.59 1.2 1.55 2.51.68 3.88-4.45 7.06-2.25 14.16-.14 21.21 2.81 13.04 3.23 23.5 1.956 36.23-.87 8.68-.487 15.03 6.59 20.15 1.89 1.37 2 3 1.53 5.22-5.164 24.17-16.18 45.29-32.704 63.64-2.32 2.58-4.193 2.97-7.42 1.51-8.36-3.76-17.273-5.38-25.59-.53-10.632 6.2-22.244 10.01-33.34 15.06-1.66.76-3.22 1.75-4.83 2.61-2.49 1.34-3.71 3.36-3.983 6.23-.43 4.55-1.316 9.06-1.75 13.6-.25 2.63-1.4 3.86-3.98 4.04-1.2.09-2.376.47-3.56.72zM79.374 39.954c-6.618-.698-11.74 1.872-15.373 7.237-7.36 10.88-14.65 21.8-21.82 32.8-2.24 3.45-4.1 7.15-4.4 11.42-1.03 14.66 3.57 27.97 10.03 40.74 2.34 4.62 6.5 6.44 11.86 6.02 7.78-.6 15.3-2.8 23.05-3.48 7.57-.66 12.6-4.76 16.12-11.26 5.95-11.01 12.06-21.93 18.06-32.91 3.13-5.74 4.08-11.81 2.14-18.14-2.24-7.3-4.97-14.42-8.71-21.11-2.1-3.77-5.12-6.49-9.34-7.57-7.09-1.82-14.29-3.14-21.57-3.71zm11.437 193.53c16.77-2.56 16.23-2.72 23.85-4.874 11.97-3.383 11.96-3.408 14.53-15.417.2-.893.45-1.772.66-2.663 2.86-12.263 1.29-23.535-6.77-33.706-8.17-10.313-17.01-20.025-25.97-29.63-1.83-1.964-4.21-2.962-6.82-3.474-9.3-1.83-18.58-.943-27.78.51-9.17 1.444-14.38 7.346-15.31 16.715-.66 6.68-1.38 13.328-2.64 19.94-1.11 5.835-.32 11.365 3.42 16.508 7.51 10.305 16.28 19.37 25.53 28.088 5.17 4.88 10.78 9.51 17.35 8.01zm101.98-93.157c0 2.29.18 4.598-.03 6.87-.79 8.647 3.3 13.654 10.53 18.478 3.88 2.59 7.21 4.255 10.74 6.948 8.39 6.4 11.94 7.186 20.83 1.424 6.95-4.505 12.82-10.374 19.33-15.417 4.58-3.545 7.05-8.283 8.09-13.905 2.15-11.5-.25-22.78-1.54-34.114-.95-8.29-5.4-14.43-12.02-19.19-3.97-2.85-8.01-5.6-11.87-8.6-4.78-3.71-10.01-4.15-15.6-2.65-6.98 1.87-13.23 5.44-19.72 8.49-6.72 3.17-9.23 8.13-9.68 15.55-.72 12.13 1.66 24.07.98 36.13zm-12.54-50.21c4.04-.14 7.53-.18 10.54-1.587 7.19-3.357 14.29-6.925 21.24-10.747 6.37-3.5 8.69-8.994 6.37-15.883-3.96-11.82-10.84-21.574-22.35-27.176-9.18-4.47-18.71-8.228-27.9-12.696-8.83-4.296-17.55-4.52-26.47-.643-7.99 3.477-15.48 7.924-22.97 12.324-7.15 4.19-8.7 9.1-5.27 16.61 2.73 5.97 5.69 11.82 8.01 17.97 1.17 3.11 3.37 5.43 6.45 6.81 14.54 6.54 30.15 9.67 45.37 14 2.43.69 5.05 1.3 7.01.99zm-42.63 128.355c-1.19 5.492 2.18 9.222 6.6 12.038 7.21 4.588 14.6 8.89 22 13.162 4.46 2.574 9.13 2.98 14.04.904 6.32-2.67 12.77-5.03 19.14-7.573 7.2-2.873 12.35-7.89 14.86-15.24 2.71-7.93 5.08-15.983 6.57-24.243 1.18-6.53-.86-12.036-6.17-16.225-6.47-5.112-13.17-9.896-20.3-14.085-5.75-3.383-11.26-3.1-16.72.678-5.92 4.096-12.38 7.202-19.02 9.95-3.69 1.525-7.08 3.58-10.2 6.065-2.55 2.036-4.89 4.422-5.55 7.65-1.8 8.802-4.64 17.405-5.22 26.92z"/>
  <path fill="#fff" d="M277.837 142.77c-75.48-91.426-197.633-91.426-273.116 0 75.49 91.422 197.64 91.422 273.12 0z"/>
  <path fill="#17417f" stroke="#000" stroke-width="3.569" d="M208.83 144.21c0 36.465-29.563 66.036-66.033 66.036s-66.03-29.57-66.03-66.035c0-36.46 29.56-66.02 66.03-66.02s66.032 29.56 66.032 66.03"/>
  <path fill="url(#b)" stroke="#000" stroke-width="4" d="M215.802 143.464c0-40.863-33.13-74-73.998-74-40.87 0-73.997 33.137-73.997 74 0 40.87 33.128 73.994 73.997 73.994 40.87 0 73.998-33.125 73.998-73.994" transform="matrix(.816 0 0 -.816 29.46 262.237)" filter="url(#c)"/>
  <path fill="#fff" d="M179.15 145.506c0-19.738-16.002-35.744-35.743-35.744-19.74 0-35.742 16.006-35.742 35.744 0 19.74 16.002 35.74 35.742 35.74s35.742-16 35.742-35.74" opacity=".49" filter="url(#d)" transform="matrix(1.145 0 0 -1.145 -21.048 308.403)"/>
  <path stroke="#000" stroke-width="3.693" d="M177.394 142.184c0 19.305-15.65 34.96-34.96 34.96-19.307 0-34.958-15.655-34.958-34.96 0-19.308 15.65-34.957 34.96-34.957 19.307 0 34.958 15.65 34.958 34.957"/>
  <path fill="#fff" d="M169.676 111.444c5.36 5.43 6.978 12.53 3.61 15.856-3.37 3.326-10.448 1.617-15.81-3.813-5.36-5.432-6.977-12.53-3.608-15.855 3.37-3.326 10.446-1.62 15.808 3.812m10.28 28.044c0 2.56-1.795 4.635-4.01 4.635-2.214 0-4.01-2.075-4.01-4.635 0-2.56 1.796-4.634 4.01-4.634 2.215 0 4.01 2.075 4.01 4.634"/>
  <path fill="none" stroke="#000" stroke-width="3.569" d="M207.706 143.463c0 36.463-29.562 66.034-66.03 66.034-36.47 0-66.032-29.57-66.032-66.034 0-36.47 29.56-66.028 66.03-66.028s66.032 29.56 66.032 66.028"/>
  <path fill="#f4bb0b" stroke="#000" stroke-width="3.111" d="M141.733 100.003c42.954 0 101.6 14.7 134.35 41.73-32.75 27.026-91.396 41.726-134.35 41.726-42.954 0-101.775-14.7-134.53-41.73C39.958 114.7 98.78 100 141.733 100m-.293-17c-51.258 0-99.92 19.58-139.072 58.73 39.153 39.153 88.76 58.728 140.018 58.728 51.258 0 100.016-19.576 139.168-58.728C242.402 102.578 192.698 83 141.44 83z" transform="matrix(.964 0 0 1.168 4.66 -22.71)"/>
  <path d="M141.28 76.536c24.823 0 49.024 5.71 71.93 16.97 23.118 11.366 42.772 27.935 60.73 49.264-17.958 21.328-37.612 37.896-60.73 49.26-22.906 11.263-47.107 16.97-71.93 16.97-24.823 0-49.023-5.708-71.93-16.97-23.118-11.363-43.93-27.932-61.89-49.26 17.96-21.33 38.772-37.898 61.89-49.263 22.907-11.26 47.107-16.97 71.93-16.97m0-2.336c-49.41 0-98.818 22.86-136.56 68.57 37.742 45.71 87.15 68.57 136.56 68.57s97.66-22.85 135.4-68.56c-37.74-45.72-85.99-68.58-135.4-68.58z"/>
  <path d="M141.335 9.622c35.738 0 69.335 13.915 94.6 39.18 25.268 25.268 39.183 58.866 39.183 94.604S261.203 212.738 235.936 238c-25.265 25.263-58.863 39.176-94.6 39.176-35.734 0-69.327-13.913-94.59-39.175-25.266-25.26-39.182-58.85-39.182-94.59s13.916-69.33 39.18-94.6c25.266-25.26 58.86-39.18 94.59-39.18m0-2.89C65.86 6.73 4.672 67.92 4.672 143.41c0 75.49 61.188 136.66 136.665 136.66 75.49 0 136.676-61.176 136.676-136.67 0-75.49-61.185-136.675-136.675-136.675z"/>
</svg>
