<?xml version="1.0" encoding="utf-8"?>
<!DOCTYPE svg PUBLIC "-//W3C//DTD SVG 1.1//EN" "http://www.w3.org/Graphics/SVG/1.1/DTD/svg11.dtd">
<svg version="1.1" xmlns="http://www.w3.org/2000/svg" xmlns:xlink="http://www.w3.org/1999/xlink" x="0px" y="0px"
     width="283.46px" height="283.46px" viewBox="0 0 283.46 283.46" xml:space="preserve">
<circle fill="#FFFFFF" cx="141.732" cy="141.733" r="141.732"/>
<g>
    <path fill="#F4BB0B" d="M131.219,1.889c6.976,0,13.953,0,20.929,0c6.812-0.296,10.072,4.344,13.263,9.309
        c4.224,6.572,10.085,10.89,17.466,13.875c14.796,5.982,29.328,12.632,43.872,19.22c4.092,1.853,8.114,2.688,12.402,1.479
        c2.672-0.752,4.498,0.062,6.222,2.072c4.849,5.65,9.429,11.488,13.555,17.696c10.456,15.734,16.675,33.153,20.702,51.463
        c0,0.951,0,1.902,0,2.854c-3.851,4.879-5.513,10.722-6.376,16.631c-2.61,17.887-6.646,35.432-11.562,52.803
        c-1.693,5.985-1.606,11.954,1.624,17.466c1.237,2.109,0.305,3.501-0.659,5.148c-9.876,16.919-22.734,31.149-38.514,42.738
        c-1.099,0.805-2.224,2.36-3.687,1.777c-9.775-3.896-17.388,1.674-25.499,5.469c-10.448,4.887-21.602,7.978-33.048,7.496
        c-10.083-0.424-16.337,3.399-20.226,12.201c-3.488,0-6.977,0-10.464,0c-0.902-0.246-1.79-0.636-2.706-0.716
        c-22.142-1.912-42.46-9.128-61.367-20.704c-3.207-1.965-4.165-3.882-3.372-7.613c1.926-9.07,0.847-17.776-5.609-24.962
        c-6.711-7.468-12.566-15.568-17.219-24.378c-5.511-10.434-13.276-15.17-25.003-12.241c-4.209,1.05-5.611-0.891-6.897-4.659
        c-3.79-11.107-5.314-22.635-7.211-34.11c0-6.66,0-13.319,0-19.978c0.604-4.346,1.408-8.674,1.759-13.04
        c0.445-5.518,2.463-9.367,8.19-11.209c12.573-4.044,21.771-12.514,29.188-23.2c4.24-6.108,8.576-12.164,13.144-18.029
        c6.429-8.26,12.201-17.27,12.86-27.616c1.127-17.692,12.136-24.744,27.005-28.852c0.912-0.252,1.798-0.597,2.687-0.925
        C107.831,5.233,119.568,3.76,131.219,1.889z M77.606,147.887c12.563,3.46,20.856-1.912,27.979-11.383
        c7.516-9.994,15.822-19.408,24.027-28.862c4.969-5.725,6.69-12.104,5.27-19.396c-2.021-10.365-5.723-20.106-11.509-28.965
        c-4.541-6.952-11.01-10.215-19.404-9.569c-5.841,0.448-11.748,1.378-17.535,0.929c-11.293-0.877-18.943,4.438-25.417,12.818
        c-8.051,10.421-15.593,21.163-22.191,32.571c-2.755,4.763-3.11,9.57-0.898,14.541c2.639,5.933,5.664,11.708,8.038,17.741
        C51.735,142.974,61.131,151.588,77.606,147.887z M233.661,71.874c0-4.374,0.17-7.712-0.032-11.029
        c-0.488-7.96-4.204-13.797-11.697-16.986c-9.469-4.031-18.884-8.192-28.416-12.062c-6.874-2.791-13.809-6.512-21.397-5.519
        c-14.838,1.943-27.576,9.037-39.107,18.243c-4.626,3.694-6.016,8.75-3.823,14.545c2.579,6.814,5.403,13.562,7.489,20.527
        c2.466,8.241,7.672,13.134,15.757,15.591c10.91,3.316,22.017,6.225,32.53,10.547c15.839,6.51,26.934-2.338,38.813-10.042
        C233.141,89.619,234.993,80.943,233.661,71.874z M163.193,265.551c23.878-3.631,48.02-6.893,56.195-35.567
        c0.17-0.601,0.521-1.151,0.815-1.713c3.398-6.463,2.938-12.764-0.711-18.979c-3.698-6.298-8.083-12.087-12.674-17.756
        c-6.199-7.655-13.948-10.626-23.159-6.904c-13.563,5.481-27.591,8.962-41.923,11.521c-5.923,1.06-9.153,5.119-11.167,10.521
        c-1.986,5.322-3.416,10.884-6.403,15.8c-4.907,8.075-4.417,12.996,2.118,20.027c5.851,6.294,13.041,11.041,19.408,16.731
        C150.702,263.712,156.357,265.916,163.193,265.551z M270.422,136.203c0.069-5.359-1.451-10.156-4.089-14.591
        c-5.699-9.59-13.19-17.804-20.746-25.889c-4.515-4.832-9.463-5.075-15.033-1.399c-6.469,4.266-12.743,8.826-19.057,13.324
        c-2.39,1.703-4.067,4.023-4.729,6.916c-3.791,16.59-4.101,33.563-5.377,50.422c-0.299,3.938,0.556,7.909,1.953,11.646
        c3.521,9.415,11.076,16.05,16.846,23.895c4.945,6.725,11.703,7.883,18.928,3.657c8.206-4.802,15.29-11.232,19.211-19.876
        C265.243,169.062,266.419,152.245,270.422,136.203z M75.219,152.486c-18.858-0.135-20.713,1.177-26.307,17.046
        c-1.894,5.373-3.866,10.717-5.762,16.089c-2.265,6.42-1.549,12.351,2.478,18.013c3.299,4.638,6.232,9.543,9.214,14.4
        c4.736,7.713,11.225,12.867,20.409,13.961c8.797,1.047,17.614,2.08,26.495,1.754c5.799-0.215,10.346-2.919,13.26-7.945
        c4.775-8.243,8.614-16.936,11.562-25.989c1.363-4.184,1.851-8.826-1.323-12.233c-8.121-8.72-14.548-18.761-22.333-27.71
        c-3.027-3.478-6.654-6.411-11.65-6.654C85.258,152.922,79.25,152.668,75.219,152.486z"/>
</g>
<g>
    <path d="M157.899,281.781c-10.467,0-20.934,0-31.4,0c-1.071-0.241-2.132-0.558-3.215-0.711
        c-12.426-1.762-24.462-4.948-35.985-9.947c-1.275-0.555-2.702-0.681-2.858-3.06c-0.829-12.515-4.29-24.102-12.657-33.917
        c-7.198-8.44-15.264-16.062-22.573-24.378c-5.208-5.927-11.132-10.76-18.264-14.093c-6.015-2.813-11.948-5.862-18.15-8.191
        c-3.117-1.169-4.396-2.962-5.255-5.877c-2.82-9.573-4.137-19.423-5.691-29.233c0-6.977,0-13.955,0-20.932
        c1.681-9.635,3.045-19.313,5.588-28.803c1.344-5.017,3.635-8.34,8.674-10.111c8.498-2.987,14.632-8.67,19.561-16.399
        c8.259-12.953,17.345-25.383,26.229-37.931c2.172-3.07,3.956-6.233,3.929-9.972c-0.025-3.397,1.765-4.953,4.403-6.538
        c19.969-11.994,41.7-18.134,64.803-19.795c7.004-0.503,13.804-0.476,19.734,4.508c2.338,1.965,5.57,3.034,8.555,4.033
        c16.118,5.391,31.493,12.454,46.619,20.139c5.269,2.676,10.854,4.363,16.93,2.73c1.879-0.505,3.582-0.241,5.269,1.191
        c15.323,13.014,27.461,28.482,36.252,46.563c0.607,1.246,1.601,2.597,0.702,4.025c-4.616,7.319-2.335,14.678-0.149,21.996
        c2.915,13.521,3.351,24.362,2.029,37.565c-0.901,9.009-0.504,15.587,6.837,20.897c1.962,1.42,2.076,3.117,1.587,5.411
        c-5.354,25.075-16.78,46.975-33.914,66.007c-2.408,2.677-4.35,3.08-7.693,1.571c-8.673-3.907-17.916-5.579-26.537-0.557
        c-11.028,6.429-23.07,10.374-34.575,15.613c-1.723,0.786-3.338,1.808-5.012,2.706c-2.582,1.387-3.849,3.477-4.132,6.46
        c-0.448,4.717-1.367,9.389-1.818,14.106c-0.26,2.719-1.456,3.996-4.129,4.18C160.35,281.126,159.129,281.523,157.899,281.781z
         M77.47,34.458c-6.863-0.725-12.174,1.94-15.943,7.504c-7.636,11.276-15.199,22.603-22.628,34.014
        c-2.325,3.569-4.258,7.413-4.569,11.84c-1.071,15.201,3.704,29,10.403,42.242c2.425,4.792,6.737,6.675,12.294,6.244
        c8.069-0.625,15.861-2.904,23.895-3.61c7.848-0.691,13.066-4.935,16.71-11.681c6.17-11.417,12.509-22.743,18.722-34.137
        c3.247-5.953,4.229-12.25,2.215-18.815c-2.325-7.575-5.159-14.955-9.036-21.897c-2.183-3.912-5.318-6.732-9.691-7.854
        C92.482,36.42,85.022,35.051,77.47,34.458z M89.331,235.157c17.391-2.656,16.83-2.822,24.73-5.056
        c12.414-3.508,12.404-3.534,15.061-15.988c0.199-0.926,0.466-1.838,0.682-2.762c2.967-12.717,1.333-24.406-7.027-34.954
        c-8.479-10.695-17.64-20.767-26.939-30.729c-1.9-2.035-4.372-3.07-7.076-3.601c-9.642-1.899-19.272-0.978-28.814,0.528
        c-9.512,1.498-14.917,7.619-15.878,17.335c-0.685,6.926-1.436,13.821-2.742,20.679c-1.153,6.05-0.336,11.785,3.548,17.119
        c7.786,10.687,16.876,20.087,26.467,29.128C76.705,231.915,82.521,236.717,89.331,235.157z M195.084,138.548
        c0,2.375,0.183,4.768-0.032,7.125c-0.818,8.967,3.416,14.159,10.918,19.162c4.026,2.685,7.478,4.413,11.139,7.205
        c8.7,6.637,12.38,7.452,21.596,1.477c7.208-4.672,13.287-10.758,20.047-15.988c4.747-3.676,7.302-8.59,8.388-14.42
        c2.229-11.927-0.258-23.625-1.605-35.378c-0.987-8.6-5.601-14.965-12.471-19.901c-4.116-2.958-8.313-5.812-12.313-8.919
        c-4.956-3.851-10.385-4.304-16.184-2.756c-7.247,1.934-13.726,5.64-20.454,8.807c-6.971,3.282-9.58,8.432-10.039,16.121
        C193.321,113.654,195.791,126.041,195.084,138.548z M182.077,86.479c4.19-0.146,7.804-0.186,10.932-1.647
        c7.451-3.481,14.812-7.181,22.018-11.145c6.599-3.63,9.005-9.327,6.608-16.471c-4.109-12.259-11.249-22.373-23.185-28.183
        c-9.524-4.636-19.409-8.532-28.938-13.166c-9.161-4.455-18.203-4.687-27.448-0.667c-8.292,3.606-16.057,8.218-23.828,12.781
        c-7.414,4.354-9.02,9.439-5.462,17.231c2.824,6.189,5.897,12.256,8.299,18.639c1.213,3.223,3.495,5.632,6.688,7.069
        c15.081,6.786,31.266,10.03,47.053,14.525C177.331,86.163,180.047,86.796,182.077,86.479z M137.871,219.588
        c-1.239,5.695,2.26,9.563,6.845,12.483c7.471,4.758,15.135,9.221,22.809,13.65c4.626,2.669,9.461,3.091,14.557,0.938
        c6.55-2.769,13.236-5.216,19.843-7.854c7.465-2.979,12.802-8.182,15.406-15.803c2.809-8.224,5.275-16.577,6.82-25.142
        c1.223-6.773-0.893-12.482-6.397-16.826c-6.718-5.302-13.666-10.263-21.051-14.607c-5.967-3.509-11.679-3.216-17.347,0.703
        c-6.144,4.248-12.838,7.469-19.726,10.317c-3.824,1.583-7.344,3.713-10.582,6.291c-2.652,2.111-5.074,4.586-5.762,7.934
        C141.418,200.8,138.474,209.721,137.871,219.588z"/>
</g>
<g>
    <path fill="#FFFFFF" d="M141.733,191.96c-48.31,0-93.919-17.772-129.377-50.227c35.458-32.457,81.067-50.229,129.377-50.229
        s93.919,17.773,129.375,50.229C235.652,174.188,190.043,191.96,141.733,191.96z"/>
    <path fill="#F4BB0B" d="M141.733,100.003c42.954,0,83.671,14.701,116.423,41.729c-32.752,27.027-73.469,41.728-116.423,41.728
        c-42.954,0-83.671-14.7-116.425-41.728C58.062,114.704,98.78,100.003,141.733,100.003 M141.733,83.003
        c-51.258,0-102.516,19.576-141.669,58.729c39.153,39.152,90.411,58.727,141.669,58.727s102.515-19.575,141.667-58.727
        C244.248,102.58,192.991,83.003,141.733,83.003L141.733,83.003z"/>
</g>
<circle cx="141.732" cy="141.732" r="21.26"/>
<g>
    <path fill="#999999" d="M131.882,138.703c0.119,0.408,0.285,0.802,0.493,1.172l-0.595,0.752c-0.195,0.246-0.173,0.595,0.047,0.818
        l1.025,1.026c0.221,0.22,0.573,0.241,0.818,0.046l0.747-0.592c0.383,0.223,0.793,0.395,1.219,0.516l0.111,0.959
        c0.037,0.312,0.299,0.547,0.611,0.547h1.452c0.311,0,0.575-0.234,0.611-0.547l0.106-0.925c0.458-0.12,0.896-0.296,1.308-0.527
        l0.722,0.571c0.246,0.193,0.595,0.172,0.817-0.047l1.027-1.026c0.22-0.221,0.24-0.571,0.045-0.818l-0.561-0.711
        c0.232-0.405,0.414-0.835,0.535-1.285l0.869-0.101c0.311-0.036,0.543-0.298,0.543-0.61v-1.453c0-0.311-0.232-0.575-0.543-0.61
        l-0.856-0.101c-0.115-0.444-0.29-0.87-0.515-1.27l0.526-0.664c0.195-0.246,0.172-0.595-0.047-0.817l-1.024-1.024
        c-0.222-0.222-0.571-0.242-0.817-0.047l-0.645,0.512c-0.419-0.246-0.867-0.434-1.335-0.56l-0.098-0.835
        c-0.037-0.312-0.301-0.544-0.61-0.544h-1.452c-0.312,0-0.574,0.232-0.612,0.544l-0.097,0.835c-0.483,0.129-0.942,0.323-1.37,0.579
        l-0.668-0.531c-0.246-0.195-0.597-0.172-0.818,0.047l-1.025,1.027c-0.222,0.219-0.242,0.571-0.047,0.817l0.559,0.707
        c-0.223,0.404-0.395,0.835-0.506,1.282l-0.896,0.103c-0.31,0.037-0.543,0.299-0.543,0.611v1.452c0,0.31,0.233,0.574,0.543,0.611
        L131.882,138.703z M137.145,134.772c1.324,0,2.401,1.078,2.401,2.402c0,1.324-1.077,2.401-2.401,2.401s-2.402-1.077-2.402-2.401
        C134.742,135.851,135.82,134.772,137.145,134.772z"/>
    <path fill="#999999" d="M151.503,139.06l-0.766-0.647c-0.235-0.199-0.586-0.191-0.809,0.021l-0.425,0.397
        c-0.356-0.172-0.735-0.294-1.126-0.365l-0.12-0.584c-0.06-0.301-0.341-0.511-0.646-0.486l-0.999,0.084
        c-0.309,0.026-0.548,0.277-0.56,0.586l-0.019,0.593c-0.384,0.14-0.748,0.329-1.078,0.567l-0.508-0.336
        c-0.258-0.17-0.6-0.122-0.798,0.115l-0.648,0.77c-0.199,0.237-0.188,0.585,0.023,0.809l0.442,0.472
        c-0.153,0.344-0.263,0.708-0.325,1.079l-0.634,0.129c-0.301,0.062-0.51,0.34-0.486,0.648l0.084,1
        c0.027,0.307,0.277,0.548,0.586,0.557l0.685,0.022c0.125,0.324,0.288,0.634,0.484,0.923l-0.383,0.578
        c-0.171,0.258-0.122,0.602,0.115,0.799l0.768,0.646c0.235,0.201,0.582,0.19,0.806-0.021l0.501-0.471
        c0.327,0.156,0.675,0.27,1.03,0.336l0.141,0.688c0.059,0.303,0.337,0.51,0.646,0.485l0.999-0.085
        c0.309-0.025,0.548-0.275,0.559-0.587l0.021-0.67c0.363-0.128,0.709-0.304,1.027-0.519l0.553,0.363
        c0.258,0.169,0.602,0.121,0.801-0.113l0.646-0.766c0.202-0.238,0.191-0.586-0.021-0.811l-0.444-0.471
        c0.161-0.344,0.283-0.711,0.349-1.086l0.608-0.125c0.304-0.06,0.513-0.339,0.487-0.646l-0.084-0.999
        c-0.028-0.307-0.278-0.548-0.587-0.557l-0.612-0.019c-0.127-0.356-0.296-0.692-0.509-1.004l0.335-0.5
        C151.786,139.604,151.738,139.259,151.503,139.06z M147.735,144.838c-1.082,0.094-2.036-0.711-2.123-1.789
        c-0.094-1.082,0.711-2.036,1.789-2.126c1.082-0.092,2.036,0.713,2.125,1.792C149.62,143.797,148.815,144.751,147.735,144.838z"/>
    <path fill="#999999" d="M135.381,147.531c-0.307,0.032-0.542,0.29-0.545,0.597l-0.008,0.616c-0.004,0.31,0.224,0.57,0.531,0.609
        l0.453,0.061c0.075,0.275,0.181,0.537,0.321,0.783l-0.293,0.36c-0.194,0.241-0.18,0.587,0.037,0.812l0.432,0.438
        c0.215,0.222,0.562,0.246,0.807,0.055l0.361-0.278c0.257,0.153,0.527,0.271,0.808,0.354l0.049,0.465
        c0.031,0.309,0.29,0.545,0.599,0.545l0.615,0.008c0.31,0.007,0.572-0.224,0.612-0.531l0.056-0.441
        c0.306-0.074,0.598-0.191,0.875-0.34l0.341,0.273c0.242,0.195,0.586,0.18,0.808-0.036l0.441-0.432
        c0.221-0.215,0.245-0.562,0.055-0.806l-0.261-0.338c0.161-0.27,0.286-0.553,0.371-0.852l0.403-0.043
        c0.308-0.032,0.543-0.29,0.543-0.596l0.008-0.617c0.008-0.31-0.223-0.57-0.53-0.609l-0.391-0.054
        c-0.079-0.297-0.188-0.582-0.335-0.852l0.247-0.299c0.194-0.241,0.18-0.587-0.037-0.811l-0.431-0.438
        c-0.215-0.221-0.562-0.246-0.807-0.055l-0.295,0.226c-0.277-0.171-0.574-0.297-0.886-0.386l-0.039-0.381
        c-0.032-0.308-0.29-0.545-0.599-0.545l-0.614-0.008c-0.309-0.006-0.572,0.225-0.611,0.531l-0.048,0.377
        c-0.321,0.084-0.63,0.209-0.918,0.375l-0.304-0.246c-0.24-0.194-0.587-0.181-0.808,0.034l-0.443,0.436
        c-0.22,0.215-0.246,0.562-0.055,0.806l0.26,0.336c-0.15,0.267-0.271,0.555-0.348,0.852L135.381,147.531z M139.353,146.836
        c0.883,0.01,1.592,0.736,1.581,1.619c-0.008,0.883-0.736,1.592-1.62,1.58c-0.883-0.01-1.592-0.736-1.581-1.619
        C137.742,147.533,138.47,146.824,139.353,146.836z"/>
</g>
<g>
    <path d="M141.733,85.003c25.752,0,50.858,4.891,74.621,14.536c23.983,9.734,45.574,23.925,64.203,42.194
        c-18.629,18.268-40.22,32.458-64.203,42.192c-23.763,9.646-48.869,14.535-74.621,14.535s-50.858-4.89-74.622-14.535
        c-23.983-9.733-45.575-23.924-64.205-42.192c18.63-18.269,40.222-32.459,64.205-42.194
        C90.875,89.894,115.981,85.003,141.733,85.003 M141.733,83.003c-51.258,0-102.516,19.577-141.669,58.729
        c39.153,39.152,90.411,58.727,141.669,58.727s102.515-19.575,141.667-58.727C244.248,102.58,192.991,83.003,141.733,83.003
        L141.733,83.003z"/>
</g>
<g>
    <path fill="#F4BB0B" d="M141.726,3.001c37.062,0,71.903,14.431,98.105,40.633c26.203,26.203,40.634,61.045,40.634,98.107
        c0,37.062-14.431,71.9-40.634,98.099c-26.201,26.198-61.043,40.626-98.105,40.626c-37.057,0-71.894-14.428-98.094-40.626
        C17.43,213.641,3,178.802,3,141.741c0-37.062,14.43-71.904,40.632-98.107C69.833,17.432,104.67,3.001,141.726,3.001 M141.726,0.001
        C63.453,0.001,0,63.452,0,141.741c0,78.288,63.453,141.725,141.726,141.725c78.286,0,141.739-63.437,141.739-141.725
        C283.465,63.452,220.012,0.001,141.726,0.001L141.726,0.001z"/>
</g>
</svg>
