<svg width="374" height="332" viewBox="0 0 374 332" xmlns="http://www.w3.org/2000/svg" fill="#fff">
   <path d="m72.796,35.646c-39.39,0 -71.319,31.929 -71.319,71.309s31.929,71.318 71.319,71.318c39.38,0 71.309,-31.938 71.309,-71.318s-31.929,-71.309 -71.309,-71.309zm30.026,37.618c6.796,-3.927 15.436,-1.581 19.362,5.176c3.907,6.787 1.591,15.436 -5.195,19.363c-6.776,3.907 -15.446,1.611 -19.353,-5.196c-3.896,-6.777 -1.59,-15.436 5.186,-19.343zm-60.061,67.382c-6.787,3.907 -15.436,1.591 -19.363,-5.175c-3.906,-6.787 -1.591,-15.456 5.196,-19.363c6.776,-3.906 15.445,-1.591 19.362,5.186c3.897,6.775 1.581,15.435 -5.195,19.352zm5.195,-48.04c-3.917,6.776 -12.586,9.103 -19.362,5.186c-6.777,-3.917 -9.103,-12.576 -5.196,-19.353c3.927,-6.776 12.587,-9.103 19.363,-5.186c6.776,3.908 9.092,12.577 5.195,19.353zm24.84,71.37c-7.844,-0.01 -14.177,-6.333 -14.177,-14.177c0.01,-7.804 6.333,-14.157 14.177,-14.157c7.824,0 14.167,6.354 14.157,14.157c0,7.844 -6.333,14.167 -14.157,14.177zm-8.216,-57.021c0,-4.531 3.675,-8.207 8.216,-8.207c4.531,0 8.207,3.675 8.207,8.207c0,4.541 -3.676,8.216 -8.207,8.216c-4.541,0 -8.216,-3.675 -8.216,-8.216zm8.216,-28.686c-7.844,0 -14.167,-6.344 -14.167,-14.167c0,-7.824 6.323,-14.167 14.167,-14.167c7.824,0 14.167,6.343 14.167,14.167c0,7.823 -6.343,14.167 -14.167,14.167zm49.389,57.201c-3.927,6.777 -12.576,9.103 -19.373,5.186c-6.766,-3.927 -9.112,-12.576 -5.175,-19.363c3.907,-6.776 12.576,-9.092 19.343,-5.165c6.795,3.906 9.091,12.556 5.205,19.342z"/>
   <path d="m240.868,1.271c-48.885,0 -88.507,39.622 -88.507,88.497s39.622,88.506 88.507,88.506c48.875,0 88.497,-39.631 88.497,-88.506s-39.622,-88.497 -88.497,-88.497zm37.266,46.69c8.428,-4.874 19.151,-1.974 24.024,6.414c4.854,8.428 1.983,19.162 -6.444,24.035c-8.407,4.843 -19.171,1.994 -24.015,-6.444c-4.843,-8.419 -1.972,-19.162 6.435,-24.005zm-74.541,83.613c-8.418,4.853 -19.151,1.983 -24.024,-6.424c-4.854,-8.417 -1.974,-19.171 6.444,-24.024c8.408,-4.854 19.171,-1.974 24.025,6.434c4.842,8.407 1.962,19.161 -6.445,24.014zm6.444,-59.609c-4.854,8.408 -15.617,11.288 -24.025,6.424c-8.408,-4.853 -11.297,-15.597 -6.444,-24.015c4.873,-8.408 15.617,-11.288 24.024,-6.434s11.288,15.607 6.445,24.025zm30.831,88.567c-9.727,-0.01 -17.591,-7.864 -17.591,-17.591c0.011,-9.696 7.864,-17.58 17.591,-17.58c9.717,0 17.581,7.884 17.57,17.58c0,9.727 -7.853,17.581 -17.57,17.591zm-10.2,-70.765c0,-5.628 4.562,-10.19 10.2,-10.19c5.629,0 10.19,4.562 10.19,10.19s-4.562,10.19 -10.19,10.19c-5.639,0 -10.2,-4.561 -10.2,-10.19zm10.2,-35.604c-9.727,0 -17.58,-7.874 -17.58,-17.581s7.854,-17.581 17.58,-17.581c9.717,0 17.581,7.874 17.581,17.581s-7.864,17.581 -17.581,17.581zm61.29,70.986c-4.873,8.418 -15.607,11.298 -24.045,6.435c-8.387,-4.863 -11.297,-15.597 -6.414,-24.025c4.844,-8.408 15.607,-11.288 24.005,-6.414c8.428,4.853 11.277,15.587 6.454,24.004z"/>
   <path d="m301.715,205.611l0,-14.305l0,-19.416c0,-0.614 -0.131,-1.188 -0.181,-1.782c-17.359,11.66 -38.222,18.477 -60.666,18.477c-32.664,0 -61.944,-14.499 -81.962,-37.315l-12.334,0c-16.765,22.585 -43.549,37.315 -73.776,37.315c-20.41,0 -39.219,-6.766 -54.483,-18.054c-0.03,0.453 -0.141,0.896 -0.141,1.359l0,139.194c0,11.388 9.233,20.621 20.622,20.621l242.3,0c11.389,0 20.621,-9.233 20.621,-20.621l0,-14.133l0,-20.746l0,-70.594zm-164.114,75.357l-0.856,-78.962l77.612,38.646l-76.756,40.316z"/>
   <polygon points="311.7900085449219,200.593994140625 311.7900085449219,281.4960021972656 373.6390075683594,313.9739990234375 373.6390075683594,169.00999450683594 "/>
</svg>

