<?xml version="1.0" ?><!DOCTYPE svg  PUBLIC '-//W3C//DTD SVG 1.1//EN'  'http://www.w3.org/Graphics/SVG/1.1/DTD/svg11.dtd'><svg fill="#fff" enable-background="new 0 0 91 91" height="91px" id="Layer_1" version="1.1" viewBox="0 0 91 91" width="91px" xml:space="preserve" xmlns="http://www.w3.org/2000/svg" xmlns:xlink="http://www.w3.org/1999/xlink"><g><g><g><g><path d="M45.572,58.01c-6.727,0-12.197-5.471-12.197-12.194c0-1.641,0.322-3.24,0.959-4.748      c0.541-1.279-0.059-2.752-1.336-3.291c-1.277-0.541-2.754,0.059-3.293,1.336c-0.898,2.131-1.355,4.384-1.355,6.703      c0,9.495,7.727,17.22,17.223,17.22c9.496,0,17.222-7.725,17.222-17.22c0-1.387-1.125-2.514-2.514-2.514      c-1.387,0-2.512,1.127-2.512,2.514C57.769,52.539,52.296,58.01,45.572,58.01z"/><path d="M45.572,22.797c-1.387,0-2.512,1.125-2.512,2.514v0.148c0,1.387,1.125,2.512,2.512,2.512      c1.388,0,2.513-1.125,2.513-2.512v-0.148C48.085,23.922,46.96,22.797,45.572,22.797z"/><path d="M45.574,34.671c-1.389,0-2.514,1.125-2.514,2.512v0.148c0,1.389,1.125,2.514,2.514,2.514      c1.386,0,2.511-1.125,2.511-2.514v-0.148C48.085,35.796,46.96,34.671,45.574,34.671z"/><path d="M45.572,16.098c1.386,0,2.511-1.125,2.511-2.512v-0.15c0-1.387-1.125-2.512-2.511-2.512      c-1.389,0-2.514,1.125-2.514,2.512v0.15C43.058,14.973,44.183,16.098,45.572,16.098z"/><path d="M48.083,53.402v-0.148c0-1.387-1.125-2.512-2.511-2.512c-1.389,0-2.514,1.125-2.514,2.512v0.148      c0,1.389,1.125,2.514,2.514,2.514C46.958,55.916,48.083,54.791,48.083,53.402z"/><path d="M43.058,66.803v0.148c0,1.389,1.125,2.514,2.514,2.514c1.386,0,2.511-1.125,2.511-2.514v-0.148      c0-1.387-1.125-2.512-2.511-2.512C44.183,64.291,43.058,65.416,43.058,66.803z"/><path d="M45.572,77.84c-1.389,0-2.514,1.125-2.514,2.512V80.5c0,1.389,1.125,2.514,2.514,2.514c1.386,0,2.511-1.125,2.511-2.514      v-0.148C48.083,78.965,46.958,77.84,45.572,77.84z"/><path d="M23.251,43.368c-1.387,0-2.512,1.127-2.512,2.514c0,1.388,1.125,2.513,2.512,2.513H23.4      c1.389,0,2.514-1.125,2.514-2.513c0-1.387-1.125-2.514-2.514-2.514H23.251z"/><path d="M36.8,48.395h0.148c1.389,0,2.514-1.125,2.514-2.513c0-1.387-1.125-2.514-2.514-2.514H36.8      c-1.387,0-2.512,1.127-2.512,2.514C34.289,47.27,35.414,48.395,36.8,48.395z"/><path d="M9.851,43.368H9.703c-1.387,0-2.512,1.127-2.512,2.514c0,1.388,1.125,2.513,2.512,2.513h0.148      c1.389,0,2.514-1.125,2.514-2.513C12.365,44.495,11.24,43.368,9.851,43.368z"/><path d="M80.774,48.395h0.148c1.387,0,2.512-1.125,2.512-2.513c0-1.387-1.125-2.514-2.512-2.514h-0.148      c-1.389,0-2.514,1.127-2.514,2.514C78.261,47.27,79.386,48.395,80.774,48.395z"/><path d="M66.724,48.395h0.148c1.387,0,2.512-1.125,2.512-2.513c0-1.387-1.125-2.514-2.512-2.514h-0.148      c-1.389,0-2.514,1.127-2.514,2.514C64.21,47.27,65.335,48.395,66.724,48.395z"/><path d="M52.671,48.395h0.148c1.389,0,2.514-1.125,2.514-2.513c0-1.387-1.125-2.514-2.514-2.514h-0.148      c-1.387,0-2.512,1.127-2.512,2.514C50.159,47.27,51.284,48.395,52.671,48.395z"/><path d="M45.48,90.717c24.976,0,45.294-20.32,45.294-45.296c0-24.978-20.318-45.298-45.294-45.298      c-24.979,0-45.299,20.32-45.299,45.298C0.181,70.396,20.501,90.717,45.48,90.717z M45.48,5.148      c22.205,0,40.269,18.066,40.269,40.272S67.685,85.691,45.48,85.691c-22.207,0-40.273-18.064-40.273-40.271      S23.273,5.148,45.48,5.148z"/><path d="M45.572,76.973c5.585,0,11.009-1.498,15.785-4.309c1,0.615,2.172,0.977,3.43,0.977c3.623,0,6.57-2.949,6.57-6.574      c0-1.025-0.242-1.992-0.662-2.855c3.939-5.367,6.039-11.697,6.039-18.396c0-1.387-1.125-2.514-2.512-2.514      c-1.389,0-2.514,1.127-2.514,2.514c0,5.46-1.664,10.626-4.787,15.042c-0.67-0.23-1.387-0.363-2.135-0.363      c-3.625,0-6.572,2.949-6.572,6.572c0,0.521,0.066,1.027,0.184,1.516c-3.902,2.199-8.303,3.365-12.826,3.365      c-14.41,0-26.135-11.723-26.135-26.132c0-5.355,1.607-10.501,4.648-14.884c0.566-0.816,0.574-1.848,0.117-2.66l19.592,19.592      c0.49,0.49,1.133,0.734,1.777,0.734c0.643,0,1.285-0.244,1.775-0.734c0.982-0.982,0.982-2.571,0-3.552l-23.32-23.323      c-0.979-0.979-2.57-0.98-3.553,0c-0.98,0.982-0.98,2.572,0,3.553l2.785,2.785c-1.119-0.635-2.553-0.338-3.303,0.74      c-3.627,5.229-5.545,11.365-5.545,17.749C14.412,62.994,28.39,76.973,45.572,76.973z M64.786,65.52      c0.852,0,1.545,0.693,1.545,1.547s-0.693,1.549-1.545,1.549c-0.854,0-1.547-0.695-1.547-1.549S63.933,65.52,64.786,65.52z"/></g></g></g></g></svg>
