<svg fill="#fff" height="91" viewBox="0 0 91 91" width="91" xmlns="http://www.w3.org/2000/svg">
  <path
    d="M45.572 58.01c-6.727 0-12.197-5.471-12.197-12.194 0-1.641.322-3.24.959-4.748a2.513 2.513 0 0 0-4.629-1.955 17.163 17.163 0 0 0-1.355 6.703c0 9.495 7.727 17.22 17.223 17.22 9.496 0 17.222-7.725 17.222-17.22a2.514 2.514 0 0 0-5.026 0c0 6.723-5.473 12.194-12.197 12.194zM45.572 22.797a2.513 2.513 0 0 0-2.512 2.514v.148a2.512 2.512 0 0 0 5.025 0v-.148a2.513 2.513 0 0 0-2.513-2.514z"/>
  <path
    d="M45.574 34.671a2.513 2.513 0 0 0-2.514 2.512v.148a2.513 2.513 0 1 0 5.025 0v-.148a2.512 2.512 0 0 0-2.511-2.512zM45.572 16.098a2.512 2.512 0 0 0 2.511-2.512v-.15a2.512 2.512 0 0 0-5.025 0v.15a2.513 2.513 0 0 0 2.514 2.512zM48.083 53.402v-.148a2.512 2.512 0 0 0-5.025 0v.148a2.513 2.513 0 1 0 5.025 0zM43.058 66.803v.148a2.513 2.513 0 1 0 5.025 0v-.148a2.512 2.512 0 0 0-5.025 0zM45.572 77.84a2.513 2.513 0 0 0-2.514 2.512v.148a2.513 2.513 0 1 0 5.025 0v-.148a2.512 2.512 0 0 0-2.511-2.512zM23.251 43.368a2.514 2.514 0 0 0 0 5.027h.149a2.513 2.513 0 1 0 0-5.027h-.149zM36.8 48.395h.148a2.513 2.513 0 1 0 0-5.027H36.8a2.514 2.514 0 0 0 0 5.027zM9.851 43.368h-.148a2.514 2.514 0 0 0 0 5.027h.148a2.513 2.513 0 1 0 0-5.027zM80.774 48.395h.148a2.513 2.513 0 0 0 0-5.027h-.148a2.515 2.515 0 0 0 0 5.027zM66.724 48.395h.148a2.513 2.513 0 0 0 0-5.027h-.148a2.515 2.515 0 0 0 0 5.027zM52.671 48.395h.148a2.513 2.513 0 1 0 0-5.027h-.148a2.514 2.514 0 0 0 0 5.027z"/>
  <path
    d="M45.48 90.717c24.976 0 45.294-20.32 45.294-45.296C90.774 20.443 70.456.123 45.48.123 20.501.123.181 20.443.181 45.421c0 24.975 20.32 45.296 45.299 45.296zm0-85.569c22.205 0 40.269 18.066 40.269 40.272S67.685 85.691 45.48 85.691c-22.207 0-40.273-18.064-40.273-40.271S23.273 5.148 45.48 5.148z"/>
  <path
    d="M45.572 76.973a31.061 31.061 0 0 0 15.785-4.309c1 .615 2.172.977 3.43.977 3.623 0 6.57-2.949 6.57-6.574a6.505 6.505 0 0 0-.662-2.855c3.939-5.367 6.039-11.697 6.039-18.396a2.514 2.514 0 0 0-5.026 0c0 5.46-1.664 10.626-4.787 15.042a6.563 6.563 0 0 0-2.135-.363 6.58 6.58 0 0 0-6.572 6.572c0 .521.066 1.027.184 1.516a26.082 26.082 0 0 1-12.826 3.365c-14.41 0-26.135-11.723-26.135-26.132a25.985 25.985 0 0 1 4.648-14.884 2.504 2.504 0 0 0 .117-2.66l19.592 19.592c.49.49 1.133.734 1.777.734a2.51 2.51 0 0 0 1.775-4.286l-23.32-23.323a2.515 2.515 0 0 0-3.553 0 2.514 2.514 0 0 0 0 3.553l2.785 2.785a2.508 2.508 0 0 0-3.303.74 30.994 30.994 0 0 0-5.545 17.749c.002 17.178 13.98 31.157 31.162 31.157zM64.786 65.52a1.547 1.547 0 1 1-.004 3.094 1.547 1.547 0 0 1 .004-3.094z"/>
</svg>
