<svg xmlns="http://www.w3.org/2000/svg" viewBox="0 0 60.7 60.7">
  <g fill="#FFFFFF">
    <path d="M46.6 10.5L29.3 15c-2.5-.5-5.4.9-5.4 4.2v15.4C20 36.8 16.5 39 12.5 41c-1.7.8-2 3.2-1.2 4.7l5.8 10.6c2 4 8 .5 6-3.5L19 45.5l7-4.3.7.3c1 8.1 5.6 14.9 13.4 18.8 3.5 1.8 6.7-3.5 3.1-5.3-7.8-4-11.2-10.6-10.4-19.2v-1.2-15.2l15.1-3.9c3.3-.8 2-5.8-1.3-5z"/>
    <circle cx="19.7" cy="13.1" r="5.5"/>
    <path d="M15.7 7.3c-1.7 1 4.8-2 5.5-1.3-1.6-2.1-2.5-3.2-5.5-5.3a2.2 2.2 0 1 0-3.2 3l3.2 3.6z"/>
  </g>
</svg>